:SAMPLES-PER-SECOND 30
:FULLY-SPECIFIED
:DEGREES
86
root  34.70405519 36.49779793 -14.96884504 8.383875847 -8.260769844 4.007643223
lowerback  -7.252964497 -1.997867703 -1.36424768
upperback  -4.155769825 -2.153529882 -3.088500023
thorax  -0.2931919992 -0.9137790203 -2.56520009
lowerneck  2.062109947 -18.61689949 -13.39239979
upperneck  3.503230095 -25.65279961 13.04049969
head  4.093410015 -12.72290039 4.429399967
lclavicle  0 -4.497500157e-015 -2.743230041e-014
lhumerus  -49.82600021 27.56749916 63.78039932
lradius  5.228657756e-007 -6.507048965e-006 30.73800087
lwrist  4.824992743e-007 -3.790274832e-007 -27.22710037
lhand  -4.416312412e-031 -36.91149902 -10.67179966
lfingers  90 7.125020027 -90
lthumb  94.82076045 -25.50724672 101.0810285
rclavicle  0 -4.497500157e-015 -2.743230041e-014
rhumerus  -47.68330002 -27.23390388 -17.72729874
rradius  -5.16745672e-007 2.214343908e-008 109.7450027
rwrist  -0.0001064338358 0.02669465169 -176.7310028
rhand  -1.768881129e-031 3.510220051 -7.016839981
rfingers  -90 -7.125020027 -90
rthumb  -85.01756694 -8.923608911 -60.66297225
rfemur  -13.39398003 17.29486656 12.42517376
rtibia  -1.641283631 -1.817295909 21.7834301
rfoot  0.1141058058 -23.31310272 -34.69284058
rtoes  4.136178688 19.58478492 -102.1742777
lfemur  -8.434315681 -16.46654129 -20.79725838
ltibia  2.26876092 -2.08347702 15.42856693
lfoot  1.115710855 -21.67359734 38.99391174
ltoes  -8.575402162 -18.13667037 -115.8470924
87
root  34.70504641 36.49635615 -14.96641504 8.382572174 -8.282683372 4.011979103
lowerback  -7.266089916 -2.002219915 -1.360179663
upperback  -4.156549931 -2.158299923 -3.098089933
thorax  -0.2871020138 -0.9159470201 -2.577780008
lowerneck  2.024149895 -18.7390995 -13.59659958
upperneck  3.623759985 -25.84139824 13.19499969
head  4.206739902 -12.80930042 4.454850197
lclavicle  0 -4.497500157e-015 -2.743230041e-014
lhumerus  -49.78160095 27.53689957 63.82080078
lradius  5.228657756e-007 -6.507048965e-006 30.71509933
lwrist  4.824992743e-007 -3.790274832e-007 -27.24909973
lhand  -0 -36.94120026 -10.68400002
lfingers  90 7.125020027 -90
lthumb  94.83727609 -25.51818166 101.1138888
rclavicle  0 -4.497500157e-015 -2.743230041e-014
rhumerus  -46.73339844 -27.60749817 -16.38069916
rradius  -5.16745672e-007 2.214343908e-008 109.487999
rwrist  -0.0001064338358 0.026786061 -177.0809937
rhand  -1.768659868e-031 3.391360044 -6.624070168
rfingers  -90 -7.125020027 -90
rthumb  -84.85067893 -9.259194994 -60.74823972
rfemur  -13.36874294 17.29013062 12.42247391
rtibia  -1.637993693 -1.827178955 21.7528801
rfoot  0.1383832991 -23.3164978 -34.65655899
rtoes  4.128229506 19.58639901 -102.150564
lfemur  -8.42878437 -16.50558853 -20.80947876
ltibia  2.274641514 -2.112021208 15.44227123
lfoot  1.130484819 -21.62514114 39.03541565
ltoes  -8.582268134 -18.13350793 -115.8691512
88
root  34.70613675 36.49253845 -14.96264991 8.383448601 -8.30487442 4.030329704
lowerback  -7.258760452 -2.016760111 -1.357170105
upperback  -4.164770126 -2.176939964 -3.110039949
thorax  -0.3009279966 -0.9249070287 -2.592740059
lowerneck  2.035779953 -18.81220055 -13.58580017
upperneck  3.607010126 -25.93889809 13.15750027
head  4.205500126 -12.85879993 4.432779789
lclavicle  0 -4.497500157e-015 -2.743230041e-014
lhumerus  -49.78390121 27.58650017 63.7641983
lradius  5.228657756e-007 -6.507048965e-006 30.70359802
lwrist  4.824992743e-007 -3.790274832e-007 -27.33000183
lhand  -4.418033285e-031 -36.94120026 -10.73639965
lfingers  90 7.125020027 -90
lthumb  94.84847347 -25.5695991 101.1187171
rclavicle  0 -4.497500157e-015 -2.743230041e-014
rhumerus  -45.79309845 -28.11379814 -15.24040222
rradius  -5.16745672e-007 2.214343908e-008 109.1920013
rwrist  -0.0001064338358 0.02687746286 -177.0070038
rhand  -1.769182574e-031 3.665920019 -6.891389847
rfingers  -90 -7.125020027 -90
rthumb  -84.91906225 -9.042098014 -60.50128079
rfemur  -13.34157467 17.27807045 12.39466286
rtibia  -1.636273384 -1.868688226 21.720047
rfoot  0.1395033896 -23.37989235 -34.65556717
rtoes  4.161546952 19.57961205 -102.2499679
lfemur  -8.414534569 -16.47969246 -20.84864807
ltibia  2.29431963 -2.133850098 15.43447304
lfoot  1.127437234 -21.58798409 39.00073242
ltoes  -8.535409597 -18.15502803 -115.7186794
89
root  34.70774373 36.494611 -14.96040014 8.388647079 -8.337283134 4.039616108
lowerback  -7.257810593 -2.036720037 -1.375970364
upperback  -4.166069984 -2.201009989 -3.125519991
thorax  -0.3035629988 -0.9362260103 -2.599809885
lowerneck  2.116679907 -18.83119965 -13.50529957
upperneck  3.460559845 -25.95840073 13.14649963
head  4.138929844 -12.87380028 4.435060024
lclavicle  0 -4.497500157e-015 -2.743230041e-014
lhumerus  -49.7804985 27.55509949 63.75279999
lradius  5.228657756e-007 -6.507048965e-006 30.73209953
lwrist  4.824992743e-007 -3.790274832e-007 -27.26510048
lhand  -0 -36.98939896 -10.68760014
lfingers  90 7.125020027 -90
lthumb  94.86070534 -25.52003089 101.1658851
rclavicle  0 -4.497500157e-015 -2.743230041e-014
rhumerus  -44.87229919 -28.56659889 -14.19260406
rradius  -5.16745672e-007 2.214343908e-008 108.9120026
rwrist  -0.0001064338358 0.02696887217 -176.9539948
rhand  -1.769777576e-031 3.95517993 -6.913129807
rfingers  -90 -7.125020027 -90
rthumb  -84.8620664 -9.040447278 -60.22064032
rfemur  -13.34167862 17.27880669 12.37454319
rtibia  -1.630841255 -1.887128115 21.70600128
rfoot  0.15414913 -23.40142822 -34.61507416
rtoes  4.173820282 19.57709745 -102.2865943
lfemur  -8.414010048 -16.53956032 -20.87429619
ltibia  2.302292109 -2.165939331 15.43739986
lfoot  1.133513331 -21.52988243 39.04787827
ltoes  -8.551943497 -18.14745149 -115.7717533
